<svg xmlns="http://www.w3.org/2000/svg" width="200" height="30.77" viewBox="0 0 200 30.77"><path fill="#FFF" d="M45.655 20.657H43.59V4.03h2.065v7.696c.688-1.307 2.187-2.14 3.754-2.14 3.323 0 5.557 2.613 5.557 5.678 0 3.04-2.233 5.653-5.558 5.653-1.568 0-3.066-.832-3.755-2.138v1.877zm7.246-5.39c0-2.065-1.426-3.824-3.587-3.824-2.233 0-3.658 1.76-3.658 3.823 0 2.066 1.425 3.8 3.658 3.8 2.162 0 3.588-1.734 3.588-3.8zM57.815 4.03h2.066v16.627h-2.065V4.03zM73.3 9.875v10.782h-2.065v-1.925c-.642 1.308-1.996 2.187-3.8 2.187-1.496 0-2.613-.523-3.254-1.402-.593-.808-.807-1.78-.807-3.276V9.875h2.065v5.7c0 1.993.714 3.516 2.708 3.516 2.09 0 3.088-1.734 3.088-3.682V9.875H73.3zM78.215 15.812c.096 1.83.975 3.372 3.35 3.372 1.615 0 2.4-.784 2.73-1.71h2.09c-.354 1.83-2.112 3.444-4.82 3.444-3.634 0-5.393-2.54-5.393-5.653 0-3.254 1.926-5.677 5.32-5.677 2.804 0 4.988 2.115 4.988 4.87 0 .31 0 .76-.095 1.353l-8.17.002zm.025-1.568h6.246c0-1.875-1.307-3.063-3.04-3.063-1.852 0-3.16 1.117-3.206 3.064zM97.263 17.688c0 2.162-1.805 3.23-4.228 3.23-2.375 0-4.465-1.282-4.465-3.896h2.02c0 1.64 1.092 2.26 2.54 2.26 1.308 0 2.16-.478 2.16-1.547 0-1.21-1.28-1.33-3.44-2.065-1.64-.523-2.924-1.02-2.924-2.97 0-2.02 1.782-3.11 4.016-3.11 2.35 0 4.155 1.472 4.155 3.634h-1.994c0-1.26-.762-1.972-2.187-1.972-1.14 0-1.994.522-1.994 1.496 0 1.093 1.116 1.26 3.11 1.9 1.64.523 3.23.998 3.23 3.04zM104.482 15.266l4.916 5.393h-2.612l-4.513-4.896v4.895h-2.065V4.03h2.065v10.76l4.513-4.915h2.612l-4.916 5.39zM111.346 22.06h2.092c.117 1.946 1.21 2.92 2.992 2.92 1.852 0 3.016-.734 3.016-3.206v-3.04c-.64 1.308-1.946 2.187-3.775 2.187-1.567 0-2.612-.498-3.278-1.377-.594-.81-.806-1.78-.806-3.372V9.876h2.065v5.65c0 2.092.618 3.564 2.757 3.564 2.064 0 3.04-1.736 3.04-3.684v-5.53h2.065V21.77c0 3.444-1.806 4.965-5.13 4.965-3.066 0-4.965-1.566-5.036-4.677zM147.396 9.875h2.066v1.9c.64-1.31 1.97-2.188 3.8-2.188 1.496 0 2.59.522 3.23 1.427.593.806.83 1.756.83 3.276v6.365h-2.066V14.93c0-1.995-.712-3.516-2.73-3.516-2.065 0-3.062 1.758-3.062 3.682v5.56h-2.067V9.875zM161.835 4.103c.927 0 1.687.762 1.687 1.688 0 .903-.76 1.64-1.687 1.64-.9 0-1.64-.735-1.64-1.64 0-.927.74-1.687 1.64-1.687zm-1.023 5.772h2.067v10.782h-2.068V9.875zM177.06 21.347c0 3.848-2.16 5.393-5.747 5.393-3.682 0-5.32-2.28-5.463-4.703h2.09c.12 1.52 1.117 2.874 3.373 2.874 2.304 0 3.705-1.02 3.705-3.56v-2.565c-.688 1.306-2.21 2.138-3.776 2.138-3.302 0-5.534-2.613-5.534-5.653 0-3.063 2.232-5.677 5.534-5.677 1.567 0 3.088.832 3.776 2.14V9.874h2.043v11.472zm-9.312-6.08c0 2.065 1.427 3.8 3.61 3.8 2.232 0 3.657-1.733 3.657-3.8 0-2.065-1.425-3.824-3.656-3.824-2.185 0-3.612 1.757-3.612 3.823zM180.716 4.03h2.065v7.744c.644-1.308 1.973-2.187 3.802-2.187 1.496 0 2.59.522 3.23 1.427.594.806.83 1.756.83 3.276v6.365h-2.065V14.93c0-1.995-.714-3.516-2.73-3.516-2.067 0-3.064 1.758-3.064 3.682v5.56h-2.065l-.002-16.625zM200 20.657c-.404.07-1.164.143-1.854.143-1.33 0-3.396-.236-3.396-3.776V11.61h-1.994V9.874h1.994V6.24h2.066v3.635h2.803v1.732h-2.804v4.966c0 2.09.736 2.35 1.78 2.35.43 0 1.093-.046 1.402-.094l.002 1.827z"/><path fill="#00AEEF" d="M143.786 18.924c-1.045 0-1.78-.262-1.78-2.35v-4.967h2.803V9.875h-2.805V6.24h-2.065v3.635h-6.363v1.853c-.688-1.307-2.21-2.14-3.776-2.14-3.3 0-5.533 2.613-5.533 5.678 0 3.04 2.232 5.653 5.534 5.653 1.568 0 3.09-.833 3.777-2.14v1.877h2.043v-9.05h4.32v5.415c0 3.54 2.065 3.776 3.396 3.776.688 0 1.448-.07 1.854-.143v-1.828c-.31.05-.975.097-1.404.097zm-13.868.14c-2.186 0-3.61-1.73-3.61-3.8 0-2.063 1.427-3.822 3.61-3.822 2.232 0 3.657 1.76 3.657 3.823 0 2.067-1.425 3.8-3.657 3.8z"/><g fill="#FFF"><path d="M4.284 4.732C1.632 7.497 0 11.252 0 15.385s1.632 7.887 4.284 10.65V4.732zM13.48 26.104c3.47 0 5.76-2.784 5.76-6.104 0-3.32-2.29-6.144-5.76-6.144-3.59 0-5.877 2.823-5.877 6.144 0 3.32 2.29 6.104 5.876 6.104z"/><path d="M15.385 0c-2.84 0-5.5.77-7.78 2.11v12.205c1.104-2.098 3.508-3.434 6.026-3.434 5.342 0 8.93 4.197 8.93 9.12 0 4.883-3.588 9.078-8.93 9.078-2.518 0-4.92-1.334-6.026-3.434v3.012c2.282 1.34 4.94 2.11 7.78 2.11 8.498 0 15.386-6.89 15.386-15.385C30.77 6.89 23.882 0 15.385 0z"/></g></svg>
