<?xml version="1.0" encoding="utf-8"?>
<!-- Generator: Adobe Illustrator 16.0.0, SVG Export Plug-In . SVG Version: 6.00 Build 0)  -->
<!DOCTYPE svg PUBLIC "-//W3C//DTD SVG 1.1//EN" "http://www.w3.org/Graphics/SVG/1.1/DTD/svg11.dtd">
<svg version="1.1" id="Layer_1" xmlns="http://www.w3.org/2000/svg" xmlns:xlink="http://www.w3.org/1999/xlink" x="0px" y="0px"
	 width="200px" height="30.77px" viewBox="0 0 200 30.77" enable-background="new 0 0 200 30.77" xml:space="preserve">
<g>
	<path fill="#FFFFFF" d="M45.655,20.657H43.59V4.031h2.065v7.695c0.688-1.307,2.187-2.139,3.754-2.139
		c3.324,0,5.558,2.612,5.558,5.677c0,3.04-2.233,5.653-5.558,5.653c-1.567,0-3.065-0.832-3.754-2.138V20.657z M52.901,15.266
		c0-2.064-1.427-3.823-3.588-3.823c-2.233,0-3.658,1.759-3.658,3.823c0,2.066,1.425,3.8,3.658,3.8
		C51.475,19.065,52.901,17.332,52.901,15.266z"/>
	<path fill="#FFFFFF" d="M57.815,4.031h2.066v16.626h-2.066V4.031z"/>
	<path fill="#FFFFFF" d="M73.301,9.875v10.782h-2.066v-1.925c-0.642,1.308-1.996,2.187-3.8,2.187c-1.496,0-2.613-0.522-3.254-1.401
		c-0.594-0.808-0.808-1.781-0.808-3.276V9.875h2.065v5.7c0,1.993,0.714,3.516,2.708,3.516c2.09,0,3.088-1.735,3.088-3.683V9.875
		H73.301z"/>
	<path fill="#FFFFFF" d="M78.215,15.812c0.096,1.83,0.975,3.372,3.35,3.372c1.615,0,2.399-0.784,2.731-1.709h2.09
		c-0.355,1.828-2.113,3.443-4.821,3.443c-3.634,0-5.393-2.541-5.393-5.653c0-3.254,1.926-5.677,5.321-5.677
		c2.803,0,4.987,2.115,4.987,4.869c0,0.31,0,0.76-0.095,1.354L78.215,15.812L78.215,15.812z M78.24,14.244h6.246
		c0-1.875-1.307-3.063-3.041-3.063C79.594,11.181,78.286,12.297,78.24,14.244z"/>
	<path fill="#FFFFFF" d="M97.263,17.688c0,2.162-1.805,3.23-4.228,3.23c-2.375,0-4.465-1.282-4.465-3.896h2.019
		c0,1.64,1.093,2.259,2.541,2.259c1.308,0,2.161-0.477,2.161-1.546c0-1.211-1.282-1.329-3.442-2.065
		c-1.64-0.523-2.923-1.021-2.923-2.97c0-2.019,1.782-3.111,4.016-3.111c2.35,0,4.155,1.473,4.155,3.635h-1.994
		c0-1.26-0.762-1.972-2.187-1.972c-1.141,0-1.994,0.522-1.994,1.496c0,1.093,1.116,1.26,3.111,1.899
		C95.672,15.171,97.263,15.646,97.263,17.688z"/>
	<path fill="#FFFFFF" d="M104.482,15.266l4.916,5.393h-2.612l-4.513-4.895v4.895h-2.065V4.031h2.065v10.76l4.513-4.916h2.612
		L104.482,15.266z"/>
	<path fill="#FFFFFF" d="M111.346,22.06h2.092c0.117,1.946,1.209,2.921,2.992,2.921c1.852,0,3.016-0.735,3.016-3.207v-3.04
		c-0.641,1.308-1.946,2.187-3.775,2.187c-1.568,0-2.613-0.499-3.279-1.378c-0.594-0.809-0.806-1.781-0.806-3.372V9.875h2.065v5.651
		c0,2.091,0.617,3.563,2.756,3.563c2.064,0,3.039-1.735,3.039-3.683V9.875h2.066v11.897c0,3.444-1.806,4.965-5.131,4.965
		C113.316,26.738,111.417,25.171,111.346,22.06z"/>
	<path fill="#FFFFFF" d="M147.396,9.875h2.066v1.899c0.641-1.308,1.971-2.187,3.801-2.187c1.495,0,2.588,0.522,3.229,1.427
		c0.593,0.806,0.831,1.756,0.831,3.276v6.365h-2.067v-5.726c0-1.994-0.712-3.515-2.729-3.515c-2.066,0-3.063,1.758-3.063,3.682
		v5.559h-2.067V9.875L147.396,9.875z"/>
	<path fill="#FFFFFF" d="M161.835,4.103c0.927,0,1.687,0.762,1.687,1.688c0,0.902-0.76,1.64-1.687,1.64
		c-0.901,0-1.64-0.736-1.64-1.64C160.195,4.863,160.934,4.103,161.835,4.103z M160.812,9.875h2.067v10.782h-2.067V9.875z"/>
	<path fill="#FFFFFF" d="M177.061,21.347c0,3.848-2.162,5.393-5.748,5.393c-3.682,0-5.319-2.28-5.463-4.703h2.09
		c0.119,1.521,1.117,2.874,3.373,2.874c2.304,0,3.705-1.021,3.705-3.562v-2.564c-0.688,1.306-2.209,2.138-3.776,2.138
		c-3.302,0-5.534-2.613-5.534-5.653c0-3.063,2.232-5.677,5.534-5.677c1.567,0,3.088,0.832,3.776,2.139V9.875h2.043V21.347z
		 M167.748,15.266c0,2.066,1.427,3.8,3.611,3.8c2.231,0,3.656-1.732,3.656-3.8c0-2.064-1.425-3.823-3.656-3.823
		C169.175,11.442,167.748,13.2,167.748,15.266z"/>
	<path fill="#FFFFFF" d="M180.716,4.031h2.065v7.743c0.643-1.308,1.972-2.187,3.801-2.187c1.496,0,2.59,0.522,3.23,1.427
		c0.594,0.806,0.83,1.756,0.83,3.276v6.365h-2.065v-5.726c0-1.994-0.714-3.515-2.731-3.515c-2.066,0-3.063,1.758-3.063,3.682v5.559
		h-2.065L180.716,4.031L180.716,4.031z"/>
	<path fill="#FFFFFF" d="M200,20.657c-0.404,0.07-1.164,0.143-1.854,0.143c-1.33,0-3.396-0.236-3.396-3.776v-5.415h-1.994V9.875
		h1.994V6.24h2.066v3.635h2.803v1.732h-2.803v4.966c0,2.089,0.736,2.351,1.781,2.351c0.428,0,1.092-0.047,1.401-0.095L200,20.657
		L200,20.657z"/>
	<path fill="#00AEEF" d="M143.786,18.924c-1.045,0-1.781-0.262-1.781-2.351v-4.966h2.804V9.875h-2.804V6.24h-2.065v3.635h-1.996
		h-2.324h-2.043v1.853c-0.688-1.307-2.209-2.139-3.776-2.139c-3.302,0-5.534,2.612-5.534,5.677c0,3.04,2.232,5.653,5.534,5.653
		c1.567,0,3.089-0.832,3.776-2.138v1.876h2.043v-9.05h2.324h1.996v5.415c0,3.54,2.065,3.776,3.396,3.776
		c0.688,0,1.448-0.071,1.854-0.143v-1.828C144.879,18.877,144.215,18.924,143.786,18.924z M129.918,19.065
		c-2.186,0-3.611-1.732-3.611-3.8c0-2.064,1.428-3.823,3.611-3.823c2.232,0,3.657,1.759,3.657,3.823
		C133.575,17.332,132.15,19.065,129.918,19.065z"/>
</g>
<g>
	<path fill="#FFFFFF" d="M4.284,4.732C1.632,7.497,0,11.251,0,15.385s1.632,7.887,4.284,10.65V4.732z"/>
	<path fill="#FFFFFF" d="M13.479,26.104c3.47,0,5.76-2.784,5.76-6.104c0-3.32-2.29-6.144-5.76-6.144
		c-3.588,0-5.876,2.823-5.876,6.144C7.603,23.32,9.892,26.104,13.479,26.104z"/>
	<path fill="#FFFFFF" d="M15.385,0c-2.84,0-5.499,0.771-7.781,2.11v12.205c1.105-2.098,3.509-3.434,6.027-3.434
		c5.341,0,8.928,4.196,8.928,9.118c0,4.884-3.587,9.079-8.928,9.079c-2.519,0-4.922-1.334-6.027-3.434v3.012
		c2.282,1.341,4.941,2.11,7.781,2.11c8.497,0,15.385-6.889,15.385-15.385C30.77,6.888,23.882,0,15.385,0z"/>
</g>
</svg>
