<?xml version="1.0" encoding="UTF-8" standalone="no"?>
<svg width="152px" height="152px" viewBox="0 0 152 152" version="1.1" xmlns="http://www.w3.org/2000/svg" xmlns:xlink="http://www.w3.org/1999/xlink">
    <!-- Generator: Sketch 3.7.1 (28215) - http://www.bohemiancoding.com/sketch -->
    <title>logo 2</title>
    <desc>Created with Sketch.</desc>
    <defs></defs>
    <g id="Welcome" stroke="none" stroke-width="1" fill="none" fill-rule="evenodd">
        <g id="Home-Page" transform="translate(-644.000000, -624.000000)" stroke="#00ADEF" stroke-width="1.4">
            <g id="logo-2" transform="translate(645.000000, 625.000000)">
                <path d="M21.1650769,23.3383077 C8.29584615,36.7452308 0.384307692,54.9483077 0.384307692,74.9998462 C0.384307692,95.0513846 8.29584615,113.253692 21.1650769,126.660615 L21.1650769,23.3383077 L21.1650769,23.3383077 Z" id="Stroke-1"></path>
                <path d="M65.7564615,126.995923 C82.5926154,126.995923 93.6941538,113.489 93.6941538,97.3920769 C93.6941538,81.2936154 82.5926154,67.6005385 65.7564615,67.6005385 C48.3618462,67.6005385 37.2595385,81.2936154 37.2595385,97.3920769 C37.2595385,113.489 48.3618462,126.995923 65.7564615,126.995923 L65.7564615,126.995923 Z" id="Stroke-3"></path>
                <path d="M75,0.384230769 C61.2292308,0.384230769 48.3323077,4.11884615 37.2592308,10.625 L37.2592308,69.8219231 C42.6238462,59.645 54.2838462,53.1688462 66.4938462,53.1688462 C92.3984615,53.1688462 109.791538,73.5219231 109.791538,97.3919231 C109.791538,121.076538 92.3984615,141.428077 66.4938462,141.428077 C54.2838462,141.428077 42.6238462,134.953462 37.2592308,124.775 L37.2592308,139.375 C48.3323077,145.880385 61.2292308,149.615 75,149.615 C116.208462,149.615 149.615385,116.208846 149.615385,74.9996154 C149.615385,33.7903846 116.208462,0.384230769 75,0.384230769 L75,0.384230769 Z" id="Stroke-5"></path>
            </g>
        </g>
    </g>
</svg>