<?xml version="1.0" encoding="UTF-8" standalone="no"?>
<svg width="46px" height="46px" viewBox="0 0 46 46" version="1.1" xmlns="http://www.w3.org/2000/svg" xmlns:xlink="http://www.w3.org/1999/xlink">
    <!-- Generator: Sketch 3.7.1 (28215) - http://www.bohemiancoding.com/sketch -->
    <title>f-logo</title>
    <desc>Created with Sketch.</desc>
    <defs>
        <polygon id="path-1" points="6.42697164e-21 0.199127835 6.42697164e-21 32.0479629 6.40552371 32.0479629 6.40552371 0.199127835 0 0.199127835"></polygon>
        <polygon id="path-3" points="34.8556701 22.9999407 34.8556701 0 0.222175258 0 0.222175258 45.9998814 34.8556701 45.9998814 34.8556701 22.9999407"></polygon>
    </defs>
    <g id="Welcome" stroke="none" stroke-width="1" fill="none" fill-rule="evenodd">
        <g id="Home-Page" transform="translate(-697.000000, -2300.000000)">
            <g id="f-logo" transform="translate(697.000000, 2300.000000)">
                <g id="Group-3" transform="translate(0.000000, 6.876289)">
                    <mask id="mask-2" fill="white">
                        <use xlink:href="#path-1"></use>
                    </mask>
                    <g id="Clip-2"></g>
                    <path d="M6.40552371,0.199127835 C2.43861649,4.33177732 -9.48453608e-05,9.94282887 -9.48453608e-05,16.1236639 C-9.48453608e-05,22.304499 2.43861649,27.9153134 6.40552371,32.0479629 L6.40552371,0.199127835 Z" id="Fill-1" fill="#00ADEF" mask="url(#mask-2)"></path>
                </g>
                <path d="M20.1507031,39.0276093 C25.3404041,39.0276093 28.7624247,34.8641351 28.7624247,29.9023 C28.7624247,24.9399907 25.3404041,20.7191351 20.1507031,20.7191351 C14.7888577,20.7191351 11.3666,24.9399907 11.3666,29.9023 C11.3666,34.8641351 14.7888577,39.0276093 20.1507031,39.0276093" id="Fill-4" fill="#00ADEF"></path>
                <g id="Group-8" transform="translate(11.144330, 0.000000)">
                    <mask id="mask-4" fill="white">
                        <use xlink:href="#path-3"></use>
                    </mask>
                    <g id="Clip-7"></g>
                    <path d="M11.8556701,-0.000118556701 C7.61086598,-0.000118556701 3.63542268,1.15106701 0.222175258,3.15657216 L0.222175258,21.4038711 C1.87580412,18.2668608 5.46996907,16.2706031 9.2336701,16.2706031 C17.218701,16.2706031 22.5800722,22.5443866 22.5800722,29.9022526 C22.5800722,37.2029742 17.218701,43.4762835 9.2336701,43.4762835 C5.46996907,43.4762835 1.87580412,41.4805 0.222175258,38.3430155 L0.222175258,42.8434278 C3.63542268,44.8486959 7.61086598,45.9998814 11.8556701,45.9998814 C24.5580722,45.9998814 34.8556701,35.7025206 34.8556701,22.9998814 C34.8556701,10.2972423 24.5580722,-0.000118556701 11.8556701,-0.000118556701" id="Fill-6" fill="#00ADEF" mask="url(#mask-4)"></path>
                </g>
            </g>
        </g>
    </g>
</svg>